<?xml version="1.0" standalone="no"?><!DOCTYPE svg PUBLIC "-//W3C//DTD SVG 1.1//EN" "http://www.w3.org/Graphics/SVG/1.1/DTD/svg11.dtd"><svg t="1742667442159" class="icon" viewBox="0 0 1024 1024" version="1.1" xmlns="http://www.w3.org/2000/svg" p-id="12136" xmlns:xlink="http://www.w3.org/1999/xlink" width="200" height="200"><path d="M264.149333 873.216c-131.754667 0-238.549333 0-238.549333-52.736v-15.104a235.946667 235.946667 0 0 1 238.549333-233.216h153.856a240.64 240.64 0 0 1 104.917334 24.149333 264.064 264.064 0 0 0-120.405334 220.672v12.458667a103.808 103.808 0 0 0 8.533334 43.776z m408.704 0c-109.354667 0-198.016 0-198.016-43.648v-12.458667a195.797333 195.797333 0 0 1 198.016-193.664h127.744a195.754667 195.754667 0 0 1 197.845334 193.664v12.458667c0 42.026667-88.576 43.648-197.845334 43.648zM577.024 423.552a151.594667 151.594667 0 0 1 153.258667-149.973333 151.594667 151.594667 0 0 1 153.173333 149.973333 151.552 151.552 0 0 1-153.173333 149.888 151.552 151.552 0 0 1-153.258667-150.016zM148.736 331.477333a182.656 182.656 0 0 1 184.576-180.608 182.656 182.656 0 0 1 184.618667 180.608 182.570667 182.570667 0 0 1-184.618667 180.565334 182.570667 182.570667 0 0 1-184.576-180.693334z" fill="#7c42f0" p-id="12137"></path></svg>