<?xml version="1.0" standalone="no"?><!DOCTYPE svg PUBLIC "-//W3C//DTD SVG 1.1//EN" "http://www.w3.org/Graphics/SVG/1.1/DTD/svg11.dtd"><svg t="1742667411078" class="icon" viewBox="0 0 1202 1024" version="1.1" xmlns="http://www.w3.org/2000/svg" p-id="11098" xmlns:xlink="http://www.w3.org/1999/xlink" width="234.765625" height="200"><path d="M67.717565 81.92A81.92 81.92 0 0 1 149.637565 0h901.12a81.92 81.92 0 0 1 33.302261 156.805565l100.307478 216.108522c52.313043 112.64-29.918609 241.485913-154.089739 241.485913-124.215652 0-206.402783-128.845913-154.134261-241.485913l97.057392-209.074087h-291.083131v637.818435l140.243478 40.069565a89.043478 89.043478 0 0 1 64.556522 85.615304V934.956522a89.043478 89.043478 0 0 1-89.043478 89.043478H402.476522a89.043478 89.043478 0 0 1-89.043479-89.043478v-7.613218a89.043478 89.043478 0 0 1 64.556522-85.615304l140.243478-40.069565V163.84H227.194435l97.057391 209.074087c52.268522 112.64-29.96313 241.485913-154.134261 241.485913S-36.285217 485.554087 16.027826 372.914087l100.352-216.108522A81.92 81.92 0 0 1 67.717565 81.92z m118.962087 249.010087a17.719652 17.719652 0 0 0-33.124174 0l-23.284869 62.107826a42.562783 42.562783 0 1 0 79.693913 0l-23.28487-62.107826z m826.991305 0a17.719652 17.719652 0 0 1 33.168695 0l23.28487 62.107826a42.562783 42.562783 0 1 1-79.693913 0l23.240348-62.107826z" fill="#7c42f0" p-id="11099"></path></svg>