<?xml version="1.0" standalone="no"?><!DOCTYPE svg PUBLIC "-//W3C//DTD SVG 1.1//EN" "http://www.w3.org/Graphics/SVG/1.1/DTD/svg11.dtd"><svg t="1742667475080" class="icon" viewBox="0 0 1024 1024" version="1.1" xmlns="http://www.w3.org/2000/svg" p-id="15066" xmlns:xlink="http://www.w3.org/1999/xlink" width="200" height="200"><path d="M563.268267 6.144v112.64l240.366933 80.213333 174.626133-58.197333 30.378667 91.204267-145.7152 48.571733 148.821333 409.1904a287.607467 287.607467 0 0 1-208.110933 88.712533 287.607467 287.607467 0 0 1-208.0768-88.712533L744.277333 280.576l-181.0432-60.381867v707.652267h243.541334V1024H223.6416v-96.1536h243.473067V220.194133L286.037333 280.576l148.7872 409.1904a287.607467 287.607467 0 0 1-208.110933 88.712533 287.607467 287.607467 0 0 1-208.0768-88.712533L167.424 280.576 21.742933 232.004267l30.378667-91.204267L226.781867 198.997333l240.366933-80.213333V6.144h96.1536z m240.366933 392.669867l-68.130133 187.392h136.260266l-68.130133-187.392z m-576.853333 0l-68.164267 187.392H294.912l-68.164267-187.392z" p-id="15067" fill="#7c42f0"></path></svg>