<?xml version="1.0" standalone="no"?><!DOCTYPE svg PUBLIC "-//W3C//DTD SVG 1.1//EN" "http://www.w3.org/Graphics/SVG/1.1/DTD/svg11.dtd"><svg t="1742667207230" class="icon" viewBox="0 0 1024 1024" version="1.1" xmlns="http://www.w3.org/2000/svg" p-id="2661" xmlns:xlink="http://www.w3.org/1999/xlink" width="200" height="200"><path d="M512 486.4V256c127.522133 0 230.912 104.209067 230.912 232.721067 0 128.546133-103.389867 232.721067-230.912 232.721066v-136.328533l139.025067-140.117333-48.981334-49.3568L512 486.4l-24.234667 24.439467-65.3312-65.8432-48.981333 49.390933 114.312533 115.165867 24.234667-24.439467v136.328533c-127.522133 0-230.912-104.174933-230.912-232.721066 0-128.512 103.389867-232.721067 230.912-232.721067v230.4z m0-276.957867c-153.019733 0-277.0944 125.0304-277.0944 279.278934S358.980267 768 512 768V1024c-177.015467-93.0816-292.488533-213.333333-346.350933-360.721067C119.125333 536.064 119.466667 442.197333 119.466667 197.802667 288.768 151.278933 419.6352 85.333333 512 0v209.442133z m0 558.557867c153.019733 0 277.0944-125.0304 277.0944-279.278933S665.019733 209.442133 512 209.442133V0c92.3648 85.333333 223.232 151.278933 392.533333 197.802667 0 244.394667 0.341333 338.261333-46.1824 465.476266C804.522667 810.666667 689.0496 930.884267 512 1024v-256z" fill="#7c42f0" p-id="2662"></path></svg>