<?xml version="1.0" standalone="no"?><!DOCTYPE svg PUBLIC "-//W3C//DTD SVG 1.1//EN" "http://www.w3.org/Graphics/SVG/1.1/DTD/svg11.dtd"><svg t="1742040778917" class="icon" viewBox="0 0 1024 1024" version="1.1" xmlns="http://www.w3.org/2000/svg" p-id="6798" xmlns:xlink="http://www.w3.org/1999/xlink" width="200" height="200"><path d="M832 128H192a64.19 64.19 0 0 0-64 64v400.62l224-221.87 128 128 201.37-201.38L576 192h256v254a288.52 288.52 0 0 1 64 43.4V192a64.19 64.19 0 0 0-64-64zM647.75 421.51A289 289 0 0 1 828 444L726.63 342.63zM453.17 562.42L352 461.25 128 682.84V832a64.19 64.19 0 0 0 64 64h297.36a288.07 288.07 0 0 1-36.19-333.58z" p-id="6799" fill="#FFC107"></path><path d="M885 523a256 256 0 1 0 75 181 254.33 254.33 0 0 0-75-181zM673.12 896C581.68 880.66 512 801.14 512 705.34S581.68 530 673.12 514.69z m64.45-381.31A193.49 193.49 0 0 1 896 673.12H737.57z m0 381.31V737.57H896A193.49 193.49 0 0 1 737.57 896z" p-id="6800" fill="#FFC107"></path></svg>