<?xml version="1.0" standalone="no"?><!DOCTYPE svg PUBLIC "-//W3C//DTD SVG 1.1//EN" "http://www.w3.org/Graphics/SVG/1.1/DTD/svg11.dtd"><svg t="1742667312679" class="icon" viewBox="0 0 1024 1024" version="1.1" xmlns="http://www.w3.org/2000/svg" p-id="8048" xmlns:xlink="http://www.w3.org/1999/xlink" width="200" height="200"><path d="M906.6 500.1l-102.9-103c-3-3-4.7-7.1-4.7-11.4V240.1c0-8.9-7.2-16.1-16.1-16.1H637.3c-4.3 0-8.4-1.7-11.4-4.7l-103-103c-6.3-6.3-16.5-6.3-22.8 0l-102.9 103c-3 3-7.1 4.7-11.4 4.7H240.2c-8.9 0-16.1 7.2-16.1 16.1v145.6c0 4.3-1.7 8.4-4.7 11.4l-103 103c-6.3 6.3-6.3 16.5 0 22.8l102.9 102.9c3 3 4.7 7.1 4.7 11.4v145.6c0 8.9 7.2 16.1 16.1 16.1h145.6c4.3 0 8.4 1.7 11.4 4.7L500 906.5c6.3 6.3 16.5 6.3 22.8 0l102.9-102.9c3-3 7.1-4.7 11.4-4.7h145.6c8.9 0 16.1-7.2 16.1-16.1V637.2c0-4.3 1.7-8.4 4.7-11.4l102.9-102.9c6.5-6.3 6.5-16.6 0.2-22.8z m-198.9-76.5L519.5 611.8 481 650.3c-6.3 6.3-16.5 6.3-22.8 0L322.5 514.5c-6.3-6.3-6.3-16.5 0-22.8l27.1-27.1c6.3-6.3 16.5-6.3 22.8 0l97.3 97.3 188.2-188.2c6.3-6.3 16.5-6.3 22.8 0l27.1 27.1c6.2 6.3 6.2 16.5-0.1 22.8z" fill="#7c42f0" p-id="8049"></path></svg>