<?xml version="1.0" standalone="no"?><!DOCTYPE svg PUBLIC "-//W3C//DTD SVG 1.1//EN" "http://www.w3.org/Graphics/SVG/1.1/DTD/svg11.dtd"><svg t="1741958471440" class="icon" viewBox="0 0 1024 1024" version="1.1" xmlns="http://www.w3.org/2000/svg" p-id="4169" xmlns:xlink="http://www.w3.org/1999/xlink" width="200" height="200"><path d="M802.422154 271.596308c-43.323077-43.244308-90.584615-88.457846-126.818462-125.085539-34.500923-34.816-62.936615-62.070154-66.796307-67.032615 1.811692 7.798154 17.014154 73.806769 26.151384 134.459077 6.852923 45.528615 11.736615 91.372308 11.972923 105.550769 0 0 169.038769 16.856615 328.78277 119.256615 0 0-86.409846-80.344615-173.292308-167.148307zM613.139692 84.834462l-1.024-4.726154c-2.520615-1.024-1.969231 0.630154 1.024 4.726154z" fill="#1E37FC" p-id="4170"></path><path d="M975.714462 438.744615s-86.646154-51.515077-136.585847-70.104615c-44.898462-16.699077-172.662154-51.908923-191.40923-47.734154 0 0 8.428308 234.259692-11.264 305.152-0.315077 9.452308-12.209231 75.145846-44.347077 157.538462-30.404923 78.375385-81.92 158.483692-136.585846 208.344615 124.140308-48.521846 215.985231-92.553846 324.292923-175.025231 126.976-96.728615 237.410462-253.873231 195.899077-378.092307z" fill="#37E1BE" p-id="4171"></path><path d="M610.146462 80.896c-176.758154-138.791385-369.979077-78.060308-464.738462 25.993846C81.92 176.836923 40.487385 275.456 44.110769 329.570462L39.620923 748.937846c193.220923-500.578462 601.009231-435.908923 607.310769-428.740923 12.681846 14.336-36.785231-239.300923-36.78523-239.300923z" fill="#A569FF" p-id="4172"></path><path d="M552.329846 865.358769s-262.222769 135.876923-335.556923-96.098461c0 0-35.997538-239.773538 104.369231-381.794462 0 0-182.350769 95.310769-279.315692 352.886154-2.678154 1.024-12.681846 96.964923 42.062769 175.655385 54.350769 77.981538 199.128615 144.384 340.204307 85.385846l34.422154-9.452308s103.266462-120.359385 93.814154-126.582154z" fill="#1E37FC" p-id="4173"></path></svg>