<?xml version="1.0" standalone="no"?><!DOCTYPE svg PUBLIC "-//W3C//DTD SVG 1.1//EN" "http://www.w3.org/Graphics/SVG/1.1/DTD/svg11.dtd"><svg t="1742722261886" class="icon" viewBox="0 0 1024 1024" version="1.1" xmlns="http://www.w3.org/2000/svg" p-id="2776" xmlns:xlink="http://www.w3.org/1999/xlink" width="200" height="200"><path d="M408 896h592a24 24 0 0 1 24 24v104H384v-104a24 24 0 0 1 24-24zM961.12 384H446.88A29.28 29.28 0 0 0 416 411.44V896h576V411.44a29.28 29.28 0 0 0-30.88-27.44z m-411.44 466.32H488v-384h61.68z m123.44 0h-61.68v-384h61.68z m123.44 0h-61.68v-384h61.68z m123.44 0h-61.68v-384H920z" p-id="2777" fill="#7c42f0"></path><path d="M376 96m-96 0a96 96 0 1 0 192 0 96 96 0 1 0-192 0Z" p-id="2778" fill="#7c42f0"></path><path d="M328 223.2l132.4-6.64a16.88 16.88 0 0 1 16 10.24l104 248a34.16 34.16 0 0 1-30 47.44l-116.72 4.8a34.16 34.16 0 0 1-34-24l-83.36-264A12.24 12.24 0 0 1 328 223.2z" p-id="2779" fill="#7c42f0"></path><path d="M144 1024a40 40 0 0 1-34.08-60.96l296-480a40 40 0 1 1 68.16 41.92l-296 480A40 40 0 0 1 144 1024z" p-id="2780" fill="#7c42f0"></path><path d="M796.64 790.64h-2.32L533.76 776A40 40 0 0 1 496 740.8l-32-264a40 40 0 1 1 80-9.6l28 230.72 227.12 12.8a40 40 0 0 1-2.16 80zM720 432a40 40 0 0 1-29.92-13.44L575.04 289.12 466.48 296a40 40 0 1 1-4.96-80l128-8a40 40 0 0 1 32 13.36l128 144A40 40 0 0 1 720 432zM232 424H40a40 40 0 0 1 0-80h173.76l92-106.16a40 40 0 1 1 60.48 52.32l-104 120A40 40 0 0 1 232 424z" p-id="2781" fill="#7c42f0"></path></svg>